<?xml version="1.0" encoding="UTF-8" standalone="no"?>
<!DOCTYPE svg PUBLIC "-//W3C//DTD SVG 1.1//EN" "http://www.w3.org/Graphics/SVG/1.1/DTD/svg11.dtd">
<svg width="100%" height="100%" viewBox="0 0 256 256" version="1.1" xmlns="http://www.w3.org/2000/svg" xmlns:xlink="http://www.w3.org/1999/xlink" xml:space="preserve" style="fill-rule:evenodd;clip-rule:evenodd;stroke-linejoin:round;stroke-miterlimit:1.41421;">
    <g transform="matrix(1.17879,0,0,1.17879,13.3333,-22.359)">
        <path d="M194.55,38.762C194.55,34.08 190.748,30.279 186.066,30.279L8.483,30.279C3.801,30.279 0,34.08 0,38.762L0,216.345C0,221.027 3.801,224.828 8.483,224.828L186.066,224.828C190.748,224.828 194.55,221.027 194.55,216.345L194.55,38.762Z" style="fill:rgb(245,245,245);stroke:rgb(201,201,201);stroke-width:1.7px;"/>
    </g>
    <path d="M98.179,13.333C102.798,28.925 105.629,45.54 105.629,62.845C105.629,154.647 25.949,227.052 22.557,230.087C19.929,232.437 16.632,233.615 13.333,233.615L13.333,23.333C13.333,17.836 17.779,13.368 23.269,13.334L23.333,13.333L98.179,13.333Z" style="fill:rgb(230,230,230);"/>
    <path d="M242.667,68.415C235.407,102.86 220.38,143.27 189.572,174.078C151.291,212.355 98.191,226.27 60.126,231.192C68.377,221.982 78.364,209.824 88.236,195.287C101.183,176.223 111.519,156.656 118.961,137.121C128.462,112.193 133.275,87.2 133.275,62.845C133.275,46.555 131.122,29.982 126.853,13.333L232.667,13.333L232.731,13.334C238.221,13.368 242.667,17.836 242.667,23.333L242.667,68.415Z" style="fill:rgb(230,230,230);"/>
    <path d="M231.633,242.667L130.186,242.667C161.551,231.159 188.018,214.728 209.122,193.627C211.843,190.905 214.486,188.072 217.056,185.159C229.351,194.291 238.263,202.841 242.667,207.33L242.667,232.251C240.262,234.71 236.524,238.369 231.633,242.667Z" style="fill:rgb(208,208,208);"/>
    <g transform="matrix(0.280307,0,0,0.280307,-58.4252,56.2486)">
        <path d="M477.039,317.992C474.25,321.152 471.383,324.227 468.43,327.18C438.957,356.648 399.844,377.723 352.168,389.816C326.848,396.238 303.387,398.969 285.711,400.066C309.152,415.73 340.945,430.809 376.488,430.809C448.902,430.809 505.766,368.23 508.152,365.566C513.25,359.871 513.25,351.254 508.152,345.559C507.371,344.688 495.855,331.969 477.039,317.992Z" style="fill:rgb(167,167,167);fill-rule:nonzero;"/>
    </g>
    <g transform="matrix(0.280307,0,0,0.280307,-58.4252,56.2486)">
        <path d="M415.445,77.117C408.172,51.934 400.344,35.453 399.848,34.43C396.539,27.535 388.574,24.238 381.359,26.77C380.289,27.148 363.105,33.258 340.16,45.922C350.09,61.016 358.504,76.375 365.293,91.785C382.438,85.129 399.492,80.418 415.445,77.117Z" style="fill:rgb(167,167,167);fill-rule:nonzero;"/>
    </g>
    <g transform="matrix(0.280307,0,0,0.280307,-58.4252,56.2486)">
        <path d="M386.137,185.281C386.137,211.707 380.914,238.824 370.605,265.871C362.531,287.066 351.316,308.297 337.27,328.98C326.559,344.754 315.723,357.945 306.77,367.938C348.07,362.598 405.684,347.5 447.219,305.969C517.648,235.539 512.066,118.855 511.793,113.922C511.371,106.289 505.277,100.195 497.645,99.773C496.969,99.738 493.664,99.57 488.297,99.57C468.867,99.57 422.418,101.727 375.852,119.859C382.684,141.852 386.137,163.793 386.137,185.281Z" style="fill:rgb(192,192,192);fill-rule:nonzero;"/>
    </g>
    <path d="M13.333,56.249C14.336,56.249 15.34,56.606 16.139,57.321C17.17,58.245 41.403,80.265 41.403,108.184C41.403,136.104 17.17,158.125 16.139,159.048C15.339,159.763 14.336,160.121 13.333,160.121C13.333,160.121 13.333,56.249 13.333,56.249Z" style="fill:white;"/>
    <path d="M13.333,172.784C17.537,175.974 22.87,179.342 29.04,181.796C23.798,191.736 16.557,198.305 16.139,198.679C15.34,199.394 14.336,199.751 13.333,199.751C13.333,199.751 13.333,172.784 13.333,172.784Z" style="fill:rgb(109,109,109);"/>
    <g transform="matrix(1,0,0,1,59.7705,19.7734)">
        <path d="M72.908,19.487C66.982,19.487 64.018,21.564 64.018,25.717C64.018,27.864 64.718,29.392 66.118,30.302C67.518,31.212 70.61,32.332 75.393,33.662C80.177,34.992 83.548,36.579 85.508,38.422C87.468,40.266 88.448,43.171 88.448,47.137C88.448,52.177 87.013,55.946 84.143,58.442C81.273,60.939 77.365,62.187 72.418,62.187C68.452,62.187 64.065,61.721 59.258,60.787L56.738,60.297L57.508,54.067C63.808,54.907 68.615,55.327 71.928,55.327C77.715,55.327 80.608,52.761 80.608,47.627C80.608,45.621 79.955,44.139 78.648,43.182C77.342,42.226 74.402,41.176 69.828,40.032C65.255,38.889 61.848,37.314 59.608,35.307C57.368,33.301 56.248,30.127 56.248,25.787C56.248,21.447 57.66,18.169 60.483,15.952C63.307,13.736 67.215,12.627 72.208,12.627C75.802,12.627 80.048,13.047 84.948,13.887L87.398,14.307L86.768,20.607C80.235,19.861 75.615,19.487 72.908,19.487Z" style="fill-rule:nonzero;"/>
    </g>
    <g transform="matrix(1,0,0,1,59.7705,19.7734)">
        <rect x="96.848" y="13.467" width="7.77" height="47.95" style="fill-rule:nonzero;"/>
    </g>
    <g transform="matrix(1,0,0,1,59.7705,19.7734)">
        <path d="M74.938,132.187C67.938,132.187 63.19,130.251 60.693,126.377C58.197,122.504 56.948,116.134 56.948,107.267C56.948,98.401 58.208,92.089 60.728,88.332C63.248,84.576 67.985,82.697 74.938,82.697C79.092,82.697 83.665,83.281 88.658,84.447L88.378,90.747C84.178,90.001 79.978,89.627 75.778,89.627C71.578,89.627 68.732,90.876 67.238,93.372C65.745,95.869 64.998,100.559 64.998,107.442C64.998,114.326 65.722,119.016 67.168,121.512C68.615,124.009 71.438,125.257 75.638,125.257C79.838,125.257 84.085,124.907 88.378,124.207L88.588,130.647C83.782,131.674 79.232,132.187 74.938,132.187Z" style="fill-rule:nonzero;"/>
    </g>
    <g transform="matrix(1,0,0,1,59.7705,19.7734)">
        <path d="M104.688,121.267C106.275,124.021 109.308,125.397 113.788,125.397C118.268,125.397 121.29,124.044 122.853,121.337C124.417,118.631 125.198,114.092 125.198,107.722C125.198,101.352 124.393,96.721 122.783,93.827C121.173,90.934 118.175,89.487 113.788,89.487C109.402,89.487 106.392,90.934 104.758,93.827C103.125,96.721 102.308,101.329 102.308,107.652C102.308,113.976 103.102,118.514 104.688,121.267ZM128.943,126.307C126.073,130.227 121.022,132.187 113.788,132.187C106.555,132.187 101.492,130.216 98.598,126.272C95.705,122.329 94.258,116.134 94.258,107.687C94.258,99.241 95.717,92.964 98.633,88.857C101.55,84.751 106.602,82.697 113.788,82.697C120.975,82.697 126.015,84.739 128.908,88.822C131.802,92.906 133.248,99.194 133.248,107.687C133.248,116.181 131.813,122.387 128.943,126.307Z" style="fill-rule:nonzero;"/>
    </g>
    <g transform="matrix(1,0,0,1,59.7705,19.7734)">
        <path d="M66.608,184.337L66.608,201.417L58.838,201.417L58.838,153.467L77.038,153.467C87.865,153.467 93.278,158.554 93.278,168.727C93.278,175.541 90.665,180.161 85.438,182.587L93.348,201.417L84.808,201.417L77.878,184.337L66.608,184.337ZM85.298,168.797C85.298,163.057 82.545,160.187 77.038,160.187L66.608,160.187L66.608,177.617L77.178,177.617C79.978,177.617 82.032,176.812 83.338,175.202C84.645,173.592 85.298,171.457 85.298,168.797Z" style="fill-rule:nonzero;"/>
    </g>
    <g transform="matrix(1,0,0,1,59.7705,19.7734)">
        <path d="M102.098,201.417L102.098,153.467L132.338,153.467L132.338,160.257L109.868,160.257L109.868,173.837L128.138,173.837L128.138,180.557L109.868,180.557L109.868,194.557L132.338,194.557L132.338,201.417L102.098,201.417Z" style="fill-rule:nonzero;"/>
    </g>
</svg>
